<svg xmlns="http://www.w3.org/2000/svg" viewBox="0 0 170.2 198"><defs><style>.cls-1{fill:#277987;}.cls-1,.cls-2,.cls-3{fill-rule:evenodd;}.cls-2,.cls-4{fill:#f5f5f7;}.cls-3{fill:#f2e140;}.cls-4{stroke:#f5f5f7;stroke-miterlimit:10;}</style></defs><title>Tavola disegno 5</title><g id="OBJECTS"><path class="cls-1" d="M87.66,176.66,51.13,196a7,7,0,0,1-9.39-9.74l13.69-23.72L5.61,136.3a6.87,6.87,0,0,1-3.76-6.23V48.87a6.88,6.88,0,0,1,3.76-6.23L81.74,2.58a6.88,6.88,0,0,1,6.56,0l76.13,40.06a6.89,6.89,0,0,1,3.77,6.23v81.2a6.88,6.88,0,0,1-3.77,6.23L88.3,176.36c-.21.11-.42.21-.64.3Z"/><polygon class="cls-2" points="155.9 66.35 127.99 51.67 107.17 40.72 107.17 56.79 139.22 73.66 107.17 90.52 107.17 106.59 127.99 95.64 155.9 80.96 155.9 66.35"/><polygon class="cls-3" points="62.88 56.79 62.88 40.72 42.05 51.67 14.15 66.35 14.15 80.96 42.05 95.64 62.88 106.59 62.88 90.52 30.82 73.66 62.88 56.79"/><path class="cls-4" d="M72.91,104.14,91,43.17h6.12L79,104.14Z"/></g></svg>
