<svg version="1.1"
     xmlns="http://www.w3.org/2000/svg"
     width="1024"
     height="1024"
     viewBox="0 0 1024 1024">
  <title>DoUt.dev Logo</title>
  <path fill="#2793b9"
        d="M525.829 917.888l-191.699 101.491c-5.14 2.908-11.289 4.621-17.838 4.621-20.288 0-36.734-16.446-36.734-36.734 0-7.021 1.97-13.583 5.387-19.161l-0.091 0.161 71.841-124.475-261.44-137.7c-11.803-6.085-19.735-18.191-19.735-32.148 0-0.192 0.001-0.383 0.004-0.574v0.029-426.113c-0.002-0.153-0.004-0.333-0.004-0.513 0-13.967 7.93-26.081 19.533-32.086l0.201-0.094 399.508-210.223c4.974-2.749 10.904-4.367 17.213-4.367s12.239 1.617 17.398 4.462l-0.187-0.094 399.508 210.223c11.835 6.105 19.787 18.243 19.787 32.239 0 0.16-0.001 0.32-0.003 0.479v-0.025 426.113c0.002 0.145 0.003 0.316 0.003 0.487 0 13.987-7.954 26.117-19.585 32.111l-0.202 0.094-399.508 210.223c-1.102 0.577-2.204 1.102-3.359 1.574z"></path>
  <path fill="#ddc759"
        d="M395.843 288.847v-84.33l-255.773 134.499v76.669l255.773 134.551v-84.383l-168.293-88.476 168.293-88.528z"></path>
  <path fill="#f5f5f7"
        d="M448.425 537.325l94.931-319.952h32.116l-95.088 319.952z"></path>
  <path fill="#f5f5f7"
        d="M883.932 339.014l-255.721-134.499v84.33l168.189 88.528-168.189 88.476v84.383l255.721-134.551v-76.669z"></path>
</svg>
