<svg aria-hidden="true" style="position: absolute; width: 0; height: 0; overflow: hidden;" version="1.1" xmlns="http://www.w3.org/2000/svg" xmlns:xlink="http://www.w3.org/1999/xlink">
<defs>
<symbol id="icon-logo" viewBox="0 0 32 32">
<path fill="#277987" style="fill: var(--color1, #277987)" d="M16.432 28.684l-5.991 3.172c-0.455 0.253-1.023 0.168-1.384-0.207s-0.425-0.945-0.156-1.39l2.245-3.89-8.17-4.303c-0.384-0.195-0.623-0.591-0.617-1.022v-13.316c-0.006-0.43 0.233-0.827 0.617-1.022l12.485-6.569c0.335-0.182 0.74-0.182 1.076 0l12.485 6.569c0.384 0.195 0.624 0.591 0.618 1.022v13.316c0.006 0.431-0.234 0.827-0.618 1.022l-12.485 6.569c-0.034 0.018-0.069 0.034-0.105 0.049z"></path>
<path fill="#f5f5f7" style="fill: var(--color2, #f5f5f7)" d="M27.623 10.594l-7.991-4.203v2.635l5.256 2.767-5.256 2.765v2.635l7.991-4.203z"></path>
<path fill="#f5d861" style="fill: var(--color3, #f5d861)" d="M12.368 9.026v-2.635l-7.991 4.203v2.396l7.991 4.203v-2.635l-5.258-2.765z"></path>
<path fill="#f5f5f7" style="fill: var(--color2, #f5f5f7); stroke: var(--color2, #f5f5f7)" stroke="#f5f5f7" stroke-linejoin="miter" stroke-linecap="butt" stroke-miterlimit="4" stroke-width="0.9143" d="M14.013 16.791l2.967-9.998h1.004l-2.971 9.998z"></path>
</symbol>
<symbol id="icon-search" viewBox="0 0 32 32">
<path d="M3.555 14.222c0-5.883 4.784-10.666 10.666-10.666s10.667 4.784 10.667 10.666c0 5.883-4.784 10.667-10.666 10.667s-10.666-4.784-10.666-10.666zM31.479 28.965l-6.035-6.037c1.872-2.407 3.001-5.424 3.001-8.706 0-7.842-6.38-14.222-14.222-14.222s-14.222 6.38-14.222 14.222 6.38 14.222 14.222 14.222c3.282 0 6.299-1.129 8.706-3.001l6.037 6.035c0.347 0.347 0.802 0.521 1.257 0.521s0.91-0.174 1.257-0.521c0.695-0.695 0.695-1.819 0-2.514z"></path>
</symbol>
<symbol id="icon-arrow" viewBox="0 0 32 32">
<path d="M4 7.807v-7.807l24 12.451v7.098l-24 12.451v-7.807l15.79-8.191z"></path>
</symbol>
<symbol id="icon-layout-cards" viewBox="0 0 32 32">
<path d="M1.524 0h10.667c0.842 0 1.524 0.682 1.524 1.524v10.667c0 0.842-0.682 1.524-1.524 1.524h-10.667c-0.842 0-1.524-0.682-1.524-1.524v-10.667c0-0.842 0.682-1.524 1.524-1.524z"></path>
<path d="M19.81 0h10.667c0.842 0 1.524 0.682 1.524 1.524v10.667c0 0.842-0.682 1.524-1.524 1.524h-10.667c-0.842 0-1.524-0.682-1.524-1.524v-10.667c0-0.842 0.682-1.524 1.524-1.524z"></path>
<path d="M1.524 18.286h10.667c0.842 0 1.524 0.682 1.524 1.524v10.667c0 0.842-0.682 1.524-1.524 1.524h-10.667c-0.842 0-1.524-0.682-1.524-1.524v-10.667c0-0.842 0.682-1.524 1.524-1.524z"></path>
<path d="M19.81 18.286h10.667c0.842 0 1.524 0.682 1.524 1.524v10.667c0 0.842-0.682 1.524-1.524 1.524h-10.667c-0.842 0-1.524-0.682-1.524-1.524v-10.667c0-0.842 0.682-1.524 1.524-1.524z"></path>
</symbol>
<symbol id="icon-layout-list" viewBox="0 0 32 32">
<path d="M1.524 0h16.762c0.842 0 1.524 0.682 1.524 1.524v10.667c0 0.842-0.682 1.524-1.524 1.524h-16.762c-0.842 0-1.524-0.682-1.524-1.524v-10.667c0-0.842 0.682-1.524 1.524-1.524z"></path>
<path d="M1.524 18.286h28.952c0.842 0 1.524 0.682 1.524 1.524v10.667c0 0.842-0.682 1.524-1.524 1.524h-28.952c-0.842 0-1.524-0.682-1.524-1.524v-10.667c0-0.842 0.682-1.524 1.524-1.524z"></path>
</symbol>
<symbol id="icon-theme-dark" viewBox="0 0 32 32">
<path d="M8.715 4.669c-0.801 0.566-1.536 1.222-2.202 1.965-4.563 5.073-4.414 13.191 0.332 18.095 2.508 2.593 5.878 4.040 9.488 4.070 0.040 0.002 0.082 0.002 0.123 0.002 3.564 0 6.909-1.381 9.434-3.897 0.525-0.523 1.003-1.085 1.43-1.683-5.039 0.627-10.204-1.059-13.873-4.717-3.668-3.657-5.365-8.806-4.731-13.834zM16.456 32c-0.051 0-0.101 0-0.152-0.002-4.475-0.038-8.654-1.83-11.762-5.045-5.889-6.088-6.073-16.162-0.413-22.458 1.763-1.963 3.916-3.44 6.397-4.389 0.585-0.227 1.249-0.086 1.696 0.355 0.447 0.44 0.596 1.101 0.38 1.69-1.791 4.888-0.57 10.417 3.109 14.086 3.681 3.669 9.23 4.886 14.139 3.101 0.589-0.218 1.252-0.064 1.691 0.381 0.439 0.45 0.578 1.112 0.352 1.696-0.839 2.181-2.098 4.117-3.741 5.753-3.128 3.12-7.276 4.832-11.695 4.832z"></path>
</symbol>
<symbol id="icon-theme-bright" viewBox="0 0 32 32">
<path d="M19.2 16c0-1.765-1.435-3.2-3.2-3.2s-3.2 1.435-3.2 3.2 1.435 3.2 3.2 3.2 3.2-1.435 3.2-3.2zM22.4 16c0 3.53-2.87 6.4-6.4 6.4s-6.4-2.87-6.4-6.4 2.87-6.4 6.4-6.4 6.4 2.87 6.4 6.4zM6.832 22.629l-2.302 2.222c-0.635 0.614-0.653 1.629-0.038 2.262 0.314 0.325 0.731 0.49 1.15 0.49 0.4 0 0.8-0.149 1.112-0.448l2.302-2.224c0.635-0.614 0.653-1.629 0.038-2.262-0.613-0.635-1.626-0.653-2.262-0.040zM25.168 22.629c-0.635-0.613-1.648-0.595-2.262 0.040-0.614 0.634-0.597 1.648 0.038 2.262l2.302 2.224c0.312 0.299 0.712 0.448 1.112 0.448 0.419 0 0.837-0.165 1.15-0.49 0.614-0.634 0.597-1.648-0.038-2.262zM16 25.6c-0.883 0-1.6 0.715-1.6 1.6v3.2c0 0.885 0.717 1.6 1.6 1.6s1.6-0.715 1.6-1.6v-3.2c0-0.885-0.717-1.6-1.6-1.6zM24.056 9.821c0.4 0 0.802-0.149 1.112-0.45l2.302-2.222c0.635-0.614 0.653-1.629 0.038-2.262-0.613-0.635-1.624-0.653-2.262-0.042l-2.302 2.224c-0.635 0.614-0.653 1.629-0.038 2.262 0.314 0.325 0.731 0.49 1.15 0.49zM6.754 4.845c-0.635-0.611-1.648-0.594-2.262 0.042-0.614 0.634-0.597 1.648 0.038 2.262l2.302 2.222c0.31 0.301 0.712 0.45 1.112 0.45 0.419 0 0.837-0.165 1.15-0.49 0.614-0.634 0.597-1.648-0.038-2.262zM6.4 16c0-0.885-0.717-1.6-1.6-1.6h-3.2c-0.883 0-1.6 0.715-1.6 1.6s0.717 1.6 1.6 1.6h3.2c0.883 0 1.6-0.715 1.6-1.6zM30.4 14.4h-3.2c-0.883 0-1.6 0.715-1.6 1.6s0.717 1.6 1.6 1.6h3.2c0.883 0 1.6-0.715 1.6-1.6s-0.717-1.6-1.6-1.6zM14.4 4.8v-3.2c0-0.885 0.717-1.6 1.6-1.6s1.6 0.715 1.6 1.6v3.2c0 0.885-0.717 1.6-1.6 1.6s-1.6-0.715-1.6-1.6z"></path>
</symbol>
</defs>
</svg>
