<!-- Generated by IcoMoon.io -->
<svg version="1.1" xmlns="http://www.w3.org/2000/svg" width="32" height="32" viewBox="0 0 32 32">
<title>theme-dark</title>
<path d="M8.715 4.669c-0.801 0.566-1.536 1.222-2.202 1.965-4.563 5.073-4.414 13.191 0.332 18.095 2.508 2.593 5.878 4.040 9.488 4.070 0.040 0.002 0.082 0.002 0.123 0.002 3.564 0 6.909-1.381 9.434-3.897 0.525-0.523 1.003-1.085 1.43-1.683-5.039 0.627-10.204-1.059-13.873-4.717-3.668-3.657-5.365-8.806-4.731-13.834zM16.456 32c-0.051 0-0.101 0-0.152-0.002-4.475-0.038-8.654-1.83-11.762-5.045-5.889-6.088-6.073-16.162-0.413-22.458 1.763-1.963 3.916-3.44 6.397-4.389 0.585-0.227 1.249-0.086 1.696 0.355 0.447 0.44 0.596 1.101 0.38 1.69-1.791 4.888-0.57 10.417 3.109 14.086 3.681 3.669 9.23 4.886 14.139 3.101 0.589-0.218 1.252-0.064 1.691 0.381 0.439 0.45 0.578 1.112 0.352 1.696-0.839 2.181-2.098 4.117-3.741 5.753-3.128 3.12-7.276 4.832-11.695 4.832z"></path>
</svg>
