<?xml version="1.0" standalone="no"?>
<!DOCTYPE svg PUBLIC "-//W3C//DTD SVG 20010904//EN"
 "http://www.w3.org/TR/2001/REC-SVG-20010904/DTD/svg10.dtd">
<svg version="1.0" xmlns="http://www.w3.org/2000/svg"
 width="512.000000pt" height="512.000000pt" viewBox="0 0 512.000000 512.000000"
 preserveAspectRatio="xMidYMid meet">
<metadata>
Created by potrace 1.14, written by Peter Selinger 2001-2017
</metadata>
<g transform="translate(0.000000,512.000000) scale(0.100000,-0.100000)"
fill="#000000" stroke="none">
<path d="M2410 4586 c-69 -36 -453 -238 -855 -449 -588 -309 -734 -391 -752
-416 -13 -20 -24 -55 -28 -94 -3 -34 -5 -449 -3 -922 3 -787 4 -863 20 -891 9
-17 27 -38 40 -46 13 -8 262 -140 553 -293 292 -153 534 -281 538 -285 4 -4
-59 -121 -140 -261 -81 -140 -153 -271 -160 -292 -23 -67 8 -141 71 -171 72
-34 83 -30 485 183 207 109 768 405 1246 656 479 252 878 464 887 472 10 9 24
34 33 57 14 36 15 144 13 947 l-3 906 -26 34 c-22 28 -185 118 -870 478 -600
315 -856 445 -884 448 -34 4 -59 -6 -165 -61z m-320 -949 l0 -173 -340 -179
c-187 -98 -340 -181 -340 -184 0 -3 152 -85 336 -181 185 -96 338 -180 340
-185 3 -6 3 -86 2 -177 l-3 -167 -520 274 -520 273 -2 164 -3 163 518 272
c284 149 520 272 525 272 4 1 7 -77 7 -172z m1485 -101 l520 -273 3 -160 2
-159 -521 -275 c-287 -151 -525 -276 -530 -277 -6 -2 -8 70 -7 173 l3 177 337
177 c186 97 337 179 338 182 0 3 -153 86 -340 184 l-340 179 0 173 c0 95 3
173 8 173 4 0 241 -123 527 -274z m-735 227 c0 -5 -89 -306 -197 -670 l-197
-663 -79 0 c-71 0 -79 2 -75 18 3 10 92 311 198 670 l194 652 78 0 c43 0 78
-3 78 -7z"/>
</g>
</svg>
