<svg height="20" viewBox="0 0 20 20" width="20" xmlns="http://www.w3.org/2000/svg"><path d="m2.22222222 8.88888889c0-3.67666667 2.99-6.66666667 6.66666667-6.66666667 3.67666671 0 6.66666671 2.99 6.66666671 6.66666667 0 3.67666671-2.99 6.66666671-6.66666671 6.66666671-3.67666667 0-6.66666667-2.99-6.66666667-6.66666671m17.45222218 9.21444441-3.7722222-3.7733333c1.17-1.5044444 1.8755556-3.39 1.8755556-5.44111111 0-4.90111111-3.9877778-8.88888889-8.88888891-8.88888889s-8.88888889 3.98777778-8.88888889 8.88888889 3.98777778 8.88888891 8.88888889 8.88888891c2.05111111 0 3.93666671-.7055556 5.44111111-1.8755556l3.7733333 3.7722222c.2166667.2166667.5011111.3255556.7855556.3255556.2844444 0 .5688889-.1088889.7855555-.3255556.4344445-.4344444.4344445-1.1366666 0-1.5711111" fill="#909196"/></svg>