<?xml version="1.0" encoding="UTF-8"?>
<svg width="20px" height="20px" viewBox="0 0 20 20" version="1.1" xmlns="http://www.w3.org/2000/svg" xmlns:xlink="http://www.w3.org/1999/xlink">
    <!-- Generator: Sketch 61.2 (89653) - https://sketch.com -->
    <title>Group</title>
    <desc>Created with Sketch.</desc>
    <defs>
        <path d="M2.22222222,8.88888889 C2.22222222,5.21222222 5.21222222,2.22222222 8.88888889,2.22222222 C12.5655556,2.22222222 15.5555556,5.21222222 15.5555556,8.88888889 C15.5555556,12.5655556 12.5655556,15.5555556 8.88888889,15.5555556 C5.21222222,15.5555556 2.22222222,12.5655556 2.22222222,8.88888889 M19.6744444,18.1033333 L15.9022222,14.33 C17.0722222,12.8255556 17.7777778,10.94 17.7777778,8.88888889 C17.7777778,3.98777778 13.79,0 8.88888889,0 C3.98777778,0 0,3.98777778 0,8.88888889 C0,13.79 3.98777778,17.7777778 8.88888889,17.7777778 C10.94,17.7777778 12.8255556,17.0722222 14.33,15.9022222 L18.1033333,19.6744444 C18.32,19.8911111 18.6044444,20 18.8888889,20 C19.1733333,20 19.4577778,19.8911111 19.6744444,19.6744444 C20.1088889,19.24 20.1088889,18.5377778 19.6744444,18.1033333" id="path-1"></path>
    </defs>
    <g id="Page-1" stroke="none" stroke-width="1" fill="none" fill-rule="evenodd">
        <g id="2_HP_CARD" transform="translate(-924.000000, -34.000000)">
            <g id="Group" transform="translate(924.000000, 34.000000)">
                <mask id="mask-2" fill="white">
                    <use xlink:href="#path-1"></use>
                </mask>
                <use id="🎨-Icon-Сolor" fill="#909196" fill-rule="nonzero" xlink:href="#path-1"></use>
            </g>
        </g>
    </g>
</svg>