<svg height="20" viewBox="0 0 20 20" width="20" xmlns="http://www.w3.org/2000/svg"><path d="m969.446762 36.9180431c-.500535.354-.960027.764-1.376473 1.228-2.852052 3.171-2.758952 8.245.207222 11.31 1.567678 1.621 3.673932 2.525 5.930346 2.544.025027.001.051055.001.077083.001 2.227383 0 4.318621-.863 5.89631-2.436.328351-.327.62667-.678.893956-1.052-3.14937.392-6.377825-.662-8.671279-2.948-2.292453-2.286-3.353589-5.504-2.957165-8.647m4.838178 17.083c-.032034 0-.063068 0-.095102-.001-2.796993-.024-5.408788-1.144-7.351867-3.153-3.680939-3.805-3.796063-10.102-.258277-14.037 1.10218-1.227 2.44762-2.15 3.998279-2.743.365391-.142.780836-.054 1.060134.222.279299.275.372399.688.237254 1.056-1.119197 3.055-.356381 6.511 1.94308 8.804 2.300461 2.293 5.769173 3.054 8.837457 1.938.368394-.136.782838-.04 1.057131.238.274294.281.361387.695.220236 1.06-.524561 1.363-1.311403 2.573-2.338503 3.596-1.955092 1.95-4.547866 3.02-7.309822 3.02" fill="#909196" transform="translate(-964 -34)"/></svg>