<svg height="20" viewBox="0 0 20 20" width="20" xmlns="http://www.w3.org/2000/svg"><path d="m12 10c0-1.103-.897-2-2-2s-2 .897-2 2 .897 2 2 2 2-.897 2-2zm2 0c0 2.206-1.794 4-4 4s-4-1.794-4-4 1.794-4 4-4 4 1.794 4 4zm-9.73 4.143-1.439 1.389c-.397.384-.408 1.018-.024 1.414.196.203.457.306.719.306.25 0 .5-.093.695-.28l1.439-1.39c.397-.384.408-1.018.024-1.414-.383-.397-1.016-.408-1.414-.025zm11.46 0c-.397-.383-1.03-.372-1.414.025-.384.396-.373 1.03.024 1.414l1.439 1.39c.195.187.445.28.695.28.262 0 .523-.103.719-.306.384-.396.373-1.03-.024-1.414zm-5.73 1.857c-.552 0-1 .447-1 1v2c0 .553.448 1 1 1s1-.447 1-1v-2c0-.553-.448-1-1-1zm5.035-9.862c.25 0 .501-.093.695-.281l1.439-1.389c.397-.384.408-1.018.024-1.414-.383-.397-1.015-.408-1.414-.026l-1.439 1.39c-.397.384-.408 1.018-.024 1.414.196.203.457.306.719.306zm-10.814-3.11c-.397-.382-1.03-.371-1.414.026-.384.396-.373 1.03.024 1.414l1.439 1.389c.194.188.445.281.695.281.262 0 .523-.103.719-.306.384-.396.373-1.03-.024-1.414zm-.221 6.972c0-.553-.448-1-1-1h-2c-.552 0-1 .447-1 1s.448 1 1 1h2c.552 0 1-.447 1-1zm15-1h-2c-.552 0-1 .447-1 1s.448 1 1 1h2c.552 0 1-.447 1-1s-.448-1-1-1zm-10-6v-2c0-.553.448-1 1-1s1 .447 1 1v2c0 .553-.448 1-1 1s-1-.447-1-1z" fill="#909196"/></svg>