<?xml version="1.0" encoding="UTF-8"?>
<svg width="20px" height="20px" viewBox="0 0 20 20" version="1.1" xmlns="http://www.w3.org/2000/svg" xmlns:xlink="http://www.w3.org/1999/xlink">
    <!-- Generator: Sketch 61.2 (89653) - https://sketch.com -->
    <title>🎨 Icon Сolor</title>
    <desc>Created with Sketch.</desc>
    <g id="Page-1" stroke="none" stroke-width="1" fill="none" fill-rule="evenodd">
        <g id="4_HP_w_list" transform="translate(-957.000000, -35.000000)" fill="#909196" fill-rule="nonzero">
            <g id="sun" transform="translate(957.000000, 35.000000)">
                <path d="M12,10 C12,8.897 11.103,8 10,8 C8.897,8 8,8.897 8,10 C8,11.103 8.897,12 10,12 C11.103,12 12,11.103 12,10 L12,10 Z M14,10 C14,12.206 12.206,14 10,14 C7.794,14 6,12.206 6,10 C6,7.794 7.794,6 10,6 C12.206,6 14,7.794 14,10 L14,10 Z M4.27,14.143 L2.831,15.532 C2.434,15.916 2.423,16.55 2.807,16.946 C3.003,17.149 3.264,17.252 3.526,17.252 C3.776,17.252 4.026,17.159 4.221,16.972 L5.66,15.582 C6.057,15.198 6.068,14.564 5.684,14.168 C5.301,13.771 4.668,13.76 4.27,14.143 L4.27,14.143 Z M15.73,14.143 C15.333,13.76 14.7,13.771 14.316,14.168 C13.932,14.564 13.943,15.198 14.34,15.582 L15.779,16.972 C15.974,17.159 16.224,17.252 16.474,17.252 C16.736,17.252 16.997,17.149 17.193,16.946 C17.577,16.55 17.566,15.916 17.169,15.532 L15.73,14.143 Z M10,16 C9.448,16 9,16.447 9,17 L9,19 C9,19.553 9.448,20 10,20 C10.552,20 11,19.553 11,19 L11,17 C11,16.447 10.552,16 10,16 L10,16 Z M15.035,6.138 C15.285,6.138 15.536,6.045 15.73,5.857 L17.169,4.468 C17.566,4.084 17.577,3.45 17.193,3.054 C16.81,2.657 16.178,2.646 15.779,3.028 L14.34,4.418 C13.943,4.802 13.932,5.436 14.316,5.832 C14.512,6.035 14.773,6.138 15.035,6.138 L15.035,6.138 Z M4.221,3.028 C3.824,2.646 3.191,2.657 2.807,3.054 C2.423,3.45 2.434,4.084 2.831,4.468 L4.27,5.857 C4.464,6.045 4.715,6.138 4.965,6.138 C5.227,6.138 5.488,6.035 5.684,5.832 C6.068,5.436 6.057,4.802 5.66,4.418 L4.221,3.028 Z M4,10 C4,9.447 3.552,9 3,9 L1,9 C0.448,9 0,9.447 0,10 C0,10.553 0.448,11 1,11 L3,11 C3.552,11 4,10.553 4,10 L4,10 Z M19,9 L17,9 C16.448,9 16,9.447 16,10 C16,10.553 16.448,11 17,11 L19,11 C19.552,11 20,10.553 20,10 C20,9.447 19.552,9 19,9 L19,9 Z M9,3 L9,1 C9,0.447 9.448,0 10,0 C10.552,0 11,0.447 11,1 L11,3 C11,3.553 10.552,4 10,4 C9.448,4 9,3.553 9,3 L9,3 Z" id="🎨-Icon-Сolor"></path>
            </g>
        </g>
    </g>
</svg>