<?xml version="1.0" encoding="UTF-8"?>
<svg width="30px" height="35px" viewBox="0 0 30 35" version="1.1" xmlns="http://www.w3.org/2000/svg" xmlns:xlink="http://www.w3.org/1999/xlink">
    <!-- Generator: Sketch 61.2 (89653) - https://sketch.com -->
    <title>logo</title>
    <desc>Created with Sketch.</desc>
    <g id="Page-1" stroke="none" stroke-width="1" fill="none" fill-rule="evenodd">
        <g id="4_HP_w_list" transform="translate(-45.000000, -25.000000)">
            <g id="logo" transform="translate(45.000000, 25.000000)">
                <path d="M15.475,31.3678571 L8.95178571,34.8214286 C8.45650447,35.0965448 7.83811952,35.0041426 7.44489521,34.5962614 C7.0516709,34.1883801 6.98195074,33.567029 7.275,33.0821429 L9.71964286,28.8464286 L0.823214286,24.1607143 C0.405262312,23.9485903 0.144700447,23.5168615 0.151644784,23.0482143 L0.151644784,8.54821429 C0.145127347,8.07968254 0.405563421,7.64816213 0.823214286,7.43571429 L14.4178571,0.282142857 C14.7831976,0.0840022669 15.2239453,0.0840022669 15.5892857,0.282142857 L29.1839286,7.43571429 C29.6019727,7.64798674 29.8630373,8.07940117 29.857255,8.54821429 L29.857255,23.0482143 C29.8634632,23.5171433 29.6022729,23.9487654 29.1839286,24.1607143 L15.5892857,31.3142857 C15.5517857,31.3339286 15.5142857,31.3517857 15.475,31.3678571 Z" id="Path" fill="#277987"></path>
                <polygon id="Path" fill="#F5F5F7" points="27.6607143 11.6696429 22.6767857 9.04821429 18.9589286 7.09285714 18.9589286 9.9625 24.6821429 12.975 18.9589286 15.9857143 18.9589286 18.8553571 22.6767857 16.9 27.6607143 14.2785714"></polygon>
                <polygon id="Path" fill="#F5D861" points="11.05 9.9625 11.05 7.09285714 7.33035714 9.04821429 2.34821429 11.6696429 2.34821429 14.2785714 7.33035714 16.9 11.05 18.8553571 11.05 15.9857143 5.325 12.975"></polygon>
                <polygon id="Path" stroke="#F5F5F7" fill="#F5F5F7" fill-rule="nonzero" points="12.8410714 18.4178571 16.0714286 7.53035714 17.1642857 7.53035714 13.9285714 18.4178571"></polygon>
            </g>
        </g>
    </g>
</svg>