<svg height="35" viewBox="0 0 30 35" width="30" xmlns="http://www.w3.org/2000/svg"><g fill="none" fill-rule="evenodd"><path d="m15.475 31.3678571-6.52321429 3.4535715c-.49528124.2751162-1.11366619.182714-1.5068905-.2251672-.39322431-.4078813-.46294447-1.0292324-.16989521-1.5141185l2.44464286-4.2357143-8.89642857-4.6857143c-.41795198-.212124-.67851384-.6438528-.67156951-1.1125v-14.50000001c-.00651743-.46853175.25391864-.90005216.67156951-1.1125l13.59464281-7.15357143c.3653405-.19814059.8060882-.19814059 1.1714286 0l13.5946429 7.15357143c.4180441.21227245.6791087.64368688.6733264 1.1125v14.50000001c.0062082.468929-.2549821.9005511-.6733264 1.1125l-13.5946429 7.1535714c-.0375.0196429-.075.0375-.1142857.0535714z" fill="#277987"/><path d="m27.6607143 11.6696429-4.9839286-2.62142861-3.7178571-1.95535715v2.86964286l5.7232143 3.0125-5.7232143 3.0107143v2.8696428l3.7178571-1.9553571 4.9839286-2.6214286z" fill="#f5f5f7"/><path d="m11.05 9.9625v-2.86964286l-3.71964286 1.95535715-4.98214285 2.62142861v2.6089285l4.98214285 2.6214286 3.71964286 1.9553571v-2.8696428l-5.725-3.0107143z" fill="#f5d861"/><path d="m12.8410714 18.4178571 3.2303572-10.88749996h1.0928571l-3.2357143 10.88749996z" fill="#f5f5f7" fill-rule="nonzero" stroke="#f5f5f7"/></g></svg>