<?xml version="1.0" encoding="UTF-8"?>
<svg width="20px" height="20px" viewBox="0 0 20 20" version="1.1" xmlns="http://www.w3.org/2000/svg" xmlns:xlink="http://www.w3.org/1999/xlink">
    <!-- Generator: Sketch 61.2 (89653) - https://sketch.com -->
    <title>🎨 Icon Сolor</title>
    <desc>Created with Sketch.</desc>
    <defs>
        <path d="M969.446762,36.9180431 C968.946227,37.2720431 968.486735,37.6820431 968.070289,38.1460431 C965.218237,41.3170431 965.311337,46.3910431 968.277511,49.4560431 C969.845189,51.0770431 971.951443,51.9810431 974.207857,52.0000431 C974.232884,52.0010431 974.258912,52.0010431 974.28494,52.0010431 C976.512323,52.0010431 978.603561,51.1380431 980.18125,49.5650431 C980.509601,49.2380431 980.80792,48.8870431 981.075206,48.5130431 C977.925836,48.9050431 974.697381,47.8510431 972.403927,45.5650431 C970.111474,43.2790431 969.050338,40.0610431 969.446762,36.9180431 M974.28494,54.0010431 C974.252906,54.0010431 974.221872,54.0010431 974.189838,54.0000431 C971.392845,53.9760431 968.78105,52.8560431 966.837971,50.8470431 C963.157032,47.0420431 963.041908,40.7450431 966.579694,36.8100431 C967.681874,35.5830431 969.027314,34.6600431 970.577973,34.0670431 C970.943364,33.9250431 971.358809,34.0130431 971.638107,34.2890431 C971.917406,34.5640431 972.010506,34.9770431 971.875361,35.3450431 C970.756164,38.4000431 971.51898,41.8560431 973.818441,44.1490431 C976.118902,46.4420431 979.587614,47.2030431 982.655898,46.0870431 C983.024292,45.9510431 983.438736,46.0470431 983.713029,46.3250431 C983.987323,46.6060431 984.074416,47.0200431 983.933265,47.3850431 C983.408704,48.7480431 982.621862,49.9580431 981.594762,50.9810431 C979.63967,52.9310431 977.046896,54.0010431 974.28494,54.0010431" id="path-1"></path>
    </defs>
    <g id="Page-1" stroke="none" stroke-width="1" fill="none" fill-rule="evenodd">
        <g id="2_HP_CARD" transform="translate(-964.000000, -34.000000)">
            <mask id="mask-2" fill="white">
                <use xlink:href="#path-1"></use>
            </mask>
            <use id="🎨-Icon-Сolor" fill="#909196" fill-rule="nonzero" xlink:href="#path-1"></use>
        </g>
    </g>
</svg>