<!-- Generated by IcoMoon.io -->
<svg version="1.1" xmlns="http://www.w3.org/2000/svg" width="32" height="32" viewBox="0 0 32 32">
<path d="M8.644 0.094c-0.506 0.138-0.819 0.325-1.188 0.694-0.575 0.575-0.856 1.413-0.725 2.169 0.156 0.925-0.219 0.5 6.325 7.056l5.975 5.987-5.975 5.988c-6.544 6.556-6.169 6.131-6.325 7.056-0.281 1.644 1.275 3.194 2.925 2.913 0.894-0.156 0.775-0.056 4.875-4.131 9.425-9.375 10.306-10.269 10.494-10.656 0.244-0.506 0.331-1.063 0.244-1.575-0.156-0.9 0.225-0.488-7.262-7.956-3.769-3.756-6.981-6.938-7.144-7.075-0.575-0.469-1.519-0.669-2.219-0.469z"></path>
</svg>
