<!-- Generated by IcoMoon.io -->
<svg version="1.1" xmlns="http://www.w3.org/2000/svg" width="32" height="32" viewBox="0 0 32 32">
<path d="M1.524 0h10.667c0.842 0 1.524 0.682 1.524 1.524v10.667c0 0.842-0.682 1.524-1.524 1.524h-10.667c-0.842 0-1.524-0.682-1.524-1.524v-10.667c0-0.842 0.682-1.524 1.524-1.524z"></path>
<path d="M19.81 0h10.667c0.842 0 1.524 0.682 1.524 1.524v10.667c0 0.842-0.682 1.524-1.524 1.524h-10.667c-0.842 0-1.524-0.682-1.524-1.524v-10.667c0-0.842 0.682-1.524 1.524-1.524z"></path>
<path d="M1.524 18.286h10.667c0.842 0 1.524 0.682 1.524 1.524v10.667c0 0.842-0.682 1.524-1.524 1.524h-10.667c-0.842 0-1.524-0.682-1.524-1.524v-10.667c0-0.842 0.682-1.524 1.524-1.524z"></path>
<path d="M19.81 18.286h10.667c0.842 0 1.524 0.682 1.524 1.524v10.667c0 0.842-0.682 1.524-1.524 1.524h-10.667c-0.842 0-1.524-0.682-1.524-1.524v-10.667c0-0.842 0.682-1.524 1.524-1.524z"></path>
</svg>
