<!-- Generated by IcoMoon.io -->
<svg version="1.1" xmlns="http://www.w3.org/2000/svg" width="32" height="32" viewBox="0 0 32 32">
<path fill="#277987" d="M16.432 28.684l-5.991 3.172c-0.455 0.253-1.023 0.168-1.384-0.207s-0.425-0.945-0.156-1.39l2.245-3.89-8.17-4.303c-0.384-0.195-0.623-0.591-0.617-1.022v-13.316c-0.006-0.43 0.233-0.827 0.617-1.022l12.485-6.569c0.335-0.182 0.74-0.182 1.076 0l12.485 6.569c0.384 0.195 0.624 0.591 0.618 1.022v13.316c0.006 0.431-0.234 0.827-0.618 1.022l-12.485 6.569c-0.034 0.018-0.069 0.034-0.105 0.049z"></path>
<path fill="#f5f5f7" d="M27.623 10.594l-7.991-4.203v2.635l5.256 2.767-5.256 2.765v2.635l7.991-4.203z"></path>
<path fill="#f5d861" d="M12.368 9.026v-2.635l-7.991 4.203v2.396l7.991 4.203v-2.635l-5.258-2.765z"></path>
<path fill="#f5f5f7" stroke="#f5f5f7" stroke-linejoin="miter" stroke-linecap="butt" stroke-miterlimit="4" stroke-width="0.9143" d="M14.013 16.791l2.967-9.998h1.004l-2.971 9.998z"></path>
</svg>
