<!-- Generated by IcoMoon.io -->
<svg version="1.1" xmlns="http://www.w3.org/2000/svg" width="32" height="32" viewBox="0 0 32 32">
<path d="M0.879 1.979c-0.302 0.094-0.71 0.521-0.804 0.836-0.057 0.201-0.075 2.588-0.075 10.554 0 9.825 0.006 10.309 0.119 10.547 0.119 0.27 0.49 0.628 0.741 0.729 0.201 0.075 8.82 0.075 9.021 0 0.251-0.101 0.622-0.459 0.741-0.729 0.295-0.641-0.013-1.439-0.666-1.734-0.232-0.107-0.49-0.119-3.474-0.119-3.468 0-3.455 0-3.681-0.327-0.088-0.126-0.1-1.018-0.1-8.393 0-8.964-0.019-8.506 0.345-8.669 0.126-0.057 3.053-0.075 12.438-0.075h12.281l0.201 0.182 0.207 0.182 0.031 3.040c0.031 3.323 0.019 3.21 0.421 3.574 0.314 0.295 0.565 0.389 0.999 0.358 0.49-0.031 0.854-0.258 1.093-0.678l0.157-0.283 0.019-3.863c0.013-2.67 0-3.951-0.050-4.146-0.101-0.421-0.346-0.729-0.71-0.911l-0.32-0.157-14.354 0.006c-10.346 0.006-14.423 0.025-14.58 0.075z"></path>
<path d="M18.261 10.441c-0.094 0.031-0.817 0.402-1.596 0.829-1.558 0.848-1.734 0.999-1.815 1.539-0.031 0.214 0 0.408 0.126 0.823 0.339 1.124 0.126 2.048-0.66 2.827-0.452 0.452-1.194 0.766-1.803 0.766-0.647 0-0.955 0.364-1.112 1.319-0.163 0.974-0.182 1.998-0.069 2.89 0.126 0.98 0.232 1.307 0.509 1.57 0.195 0.188 0.258 0.207 0.735 0.251 0.911 0.088 1.583 0.452 2.060 1.118 0.509 0.704 0.628 1.564 0.345 2.444-0.088 0.27-0.157 0.559-0.157 0.641 0 0.276 0.144 0.634 0.339 0.829 0.214 0.214 2.582 1.564 2.959 1.69 0.465 0.151 0.93-0.013 1.476-0.528 0.421-0.396 1.018-0.81 1.388-0.961 0.151-0.063 0.433-0.107 0.628-0.113 0.496 0 1.131 0.333 1.872 0.98 0.647 0.565 0.873 0.685 1.307 0.685 0.314 0 0.597-0.138 2.676-1.3 0.986-0.547 1.15-0.949 0.829-1.985-0.151-0.471-0.17-0.622-0.138-1.030 0.063-0.81 0.553-1.621 1.25-2.067 0.339-0.214 0.942-0.402 1.313-0.402 0.961 0 1.275-0.741 1.275-3.015 0-2.205-0.314-3.015-1.156-3.015-1.2 0-2.299-0.861-2.613-2.042-0.126-0.471-0.107-0.911 0.069-1.457 0.188-0.584 0.195-0.905 0.038-1.25-0.151-0.339-0.289-0.433-1.828-1.281-1.068-0.591-1.344-0.716-1.608-0.741-0.433-0.038-0.748 0.075-1.087 0.396-0.691 0.634-1.401 1.055-1.929 1.137-0.534 0.075-1.351-0.302-2.117-0.986-0.214-0.195-0.477-0.396-0.578-0.452-0.245-0.126-0.704-0.176-0.93-0.107zM19.725 13.739c0.226 0.195 0.647 0.471 0.936 0.616 0.509 0.251 0.559 0.264 1.099 0.264 0.528 0 0.609-0.019 1.043-0.226 0.258-0.126 0.678-0.389 0.936-0.597 0.258-0.201 0.496-0.364 0.534-0.352s0.484 0.251 0.986 0.528l0.917 0.509-0.119 0.371c-0.295 0.967-0.038 2.123 0.647 2.902 0.484 0.547 1.439 1.043 2.004 1.043 0.17 0 0.182 0.019 0.232 0.358 0.063 0.471 0.063 1.702 0 2.167-0.050 0.346-0.063 0.364-0.232 0.364-0.565 0-1.52 0.496-2.004 1.043-0.685 0.779-0.942 1.935-0.647 2.902l0.119 0.371-0.993 0.553-0.999 0.547-0.389-0.358c-1.451-1.319-2.802-1.3-4.291 0.044l-0.32 0.289-0.936-0.528c-0.521-0.289-0.936-0.559-0.936-0.603 0.006-0.044 0.057-0.251 0.113-0.459 0.446-1.652-0.741-3.461-2.45-3.757-0.465-0.082-0.44-0.031-0.528-0.911-0.031-0.352-0.031-0.804 0-1.162 0.088-0.867 0.075-0.835 0.427-0.879 0.17-0.019 0.484-0.107 0.71-0.195 1.545-0.622 2.331-2.444 1.721-4.002-0.025-0.075 0.188-0.22 0.955-0.641 0.547-0.302 1.005-0.547 1.024-0.547s0.22 0.157 0.44 0.345z"></path>
<path d="M21.139 16.157c-1.351 0.201-2.481 1.018-3.097 2.236-0.66 1.307-0.534 2.927 0.327 4.127 0.76 1.074 2.054 1.74 3.348 1.74 1.734-0.006 3.373-1.263 3.889-2.984 0.182-0.603 0.157-1.684-0.057-2.331-0.496-1.495-1.778-2.569-3.336-2.783-0.534-0.075-0.609-0.075-1.074-0.006zM22.596 18.356c0.427 0.214 0.748 0.54 0.974 0.999 0.201 0.402 0.201 1.225 0.006 1.652-0.188 0.415-0.603 0.835-1.018 1.037-0.302 0.151-0.427 0.176-0.886 0.176s-0.584-0.025-0.892-0.176c-1.256-0.616-1.545-2.318-0.559-3.304 0.647-0.647 1.539-0.792 2.375-0.383z"></path>
<path d="M6.942 27.496c-0.339 0.119-0.754 0.572-0.848 0.911-0.163 0.609 0.144 1.282 0.71 1.539l0.327 0.157h2.953c2.739 0 2.971-0.013 3.204-0.119 1.131-0.521 0.999-2.211-0.195-2.513-0.433-0.113-5.83-0.088-6.15 0.025z"></path>
</svg>
