<!-- Generated by IcoMoon.io -->
<svg version="1.1" xmlns="http://www.w3.org/2000/svg" width="32" height="32" viewBox="0 0 32 32">
<title>search</title>
<path d="M3.555 14.222c0-5.883 4.784-10.666 10.666-10.666s10.667 4.784 10.667 10.666c0 5.883-4.784 10.667-10.666 10.667s-10.666-4.784-10.666-10.666zM31.479 28.965l-6.035-6.037c1.872-2.407 3.001-5.424 3.001-8.706 0-7.842-6.38-14.222-14.222-14.222s-14.222 6.38-14.222 14.222 6.38 14.222 14.222 14.222c3.282 0 6.299-1.129 8.706-3.001l6.037 6.035c0.347 0.347 0.802 0.521 1.257 0.521s0.91-0.174 1.257-0.521c0.695-0.695 0.695-1.819 0-2.514z"></path>
</svg>
