<!-- Generated by IcoMoon.io -->
<svg version="1.1" xmlns="http://www.w3.org/2000/svg" width="32" height="32" viewBox="0 0 32 32">
<path d="M19.2 16c0-1.765-1.435-3.2-3.2-3.2s-3.2 1.435-3.2 3.2 1.435 3.2 3.2 3.2 3.2-1.435 3.2-3.2zM22.4 16c0 3.53-2.87 6.4-6.4 6.4s-6.4-2.87-6.4-6.4 2.87-6.4 6.4-6.4 6.4 2.87 6.4 6.4zM6.832 22.629l-2.302 2.222c-0.635 0.614-0.653 1.629-0.038 2.262 0.314 0.325 0.731 0.49 1.15 0.49 0.4 0 0.8-0.149 1.112-0.448l2.302-2.224c0.635-0.614 0.653-1.629 0.038-2.262-0.613-0.635-1.626-0.653-2.262-0.040zM25.168 22.629c-0.635-0.613-1.648-0.595-2.262 0.040-0.614 0.634-0.597 1.648 0.038 2.262l2.302 2.224c0.312 0.299 0.712 0.448 1.112 0.448 0.419 0 0.837-0.165 1.15-0.49 0.614-0.634 0.597-1.648-0.038-2.262zM16 25.6c-0.883 0-1.6 0.715-1.6 1.6v3.2c0 0.885 0.717 1.6 1.6 1.6s1.6-0.715 1.6-1.6v-3.2c0-0.885-0.717-1.6-1.6-1.6zM24.056 9.821c0.4 0 0.802-0.149 1.112-0.45l2.302-2.222c0.635-0.614 0.653-1.629 0.038-2.262-0.613-0.635-1.624-0.653-2.262-0.042l-2.302 2.224c-0.635 0.614-0.653 1.629-0.038 2.262 0.314 0.325 0.731 0.49 1.15 0.49zM6.754 4.845c-0.635-0.611-1.648-0.594-2.262 0.042-0.614 0.634-0.597 1.648 0.038 2.262l2.302 2.222c0.31 0.301 0.712 0.45 1.112 0.45 0.419 0 0.837-0.165 1.15-0.49 0.614-0.634 0.597-1.648-0.038-2.262zM6.4 16c0-0.885-0.717-1.6-1.6-1.6h-3.2c-0.883 0-1.6 0.715-1.6 1.6s0.717 1.6 1.6 1.6h3.2c0.883 0 1.6-0.715 1.6-1.6zM30.4 14.4h-3.2c-0.883 0-1.6 0.715-1.6 1.6s0.717 1.6 1.6 1.6h3.2c0.883 0 1.6-0.715 1.6-1.6s-0.717-1.6-1.6-1.6zM14.4 4.8v-3.2c0-0.885 0.717-1.6 1.6-1.6s1.6 0.715 1.6 1.6v3.2c0 0.885-0.717 1.6-1.6 1.6s-1.6-0.715-1.6-1.6z"></path>
</svg>
