<svg aria-hidden="true" style="position: absolute; width: 0; height: 0; overflow: hidden;" version="1.1" xmlns="http://www.w3.org/2000/svg" xmlns:xlink="http://www.w3.org/1999/xlink">
<defs>
<symbol id="icon-logo" viewBox="0 0 32 32">
<path fill="#277987" style="fill: var(--color1, #277987)" d="M16.432 28.684l-5.991 3.172c-0.455 0.253-1.023 0.168-1.384-0.207s-0.425-0.945-0.156-1.39l2.245-3.89-8.17-4.303c-0.384-0.195-0.623-0.591-0.617-1.022v-13.316c-0.006-0.43 0.233-0.827 0.617-1.022l12.485-6.569c0.335-0.182 0.74-0.182 1.076 0l12.485 6.569c0.384 0.195 0.624 0.591 0.618 1.022v13.316c0.006 0.431-0.234 0.827-0.618 1.022l-12.485 6.569c-0.034 0.018-0.069 0.034-0.105 0.049z"></path>
<path fill="#f5f5f7" style="fill: var(--color2, #f5f5f7)" d="M27.623 10.594l-7.991-4.203v2.635l5.256 2.767-5.256 2.765v2.635l7.991-4.203z"></path>
<path fill="#f5d861" style="fill: var(--color3, #f5d861)" d="M12.368 9.026v-2.635l-7.991 4.203v2.396l7.991 4.203v-2.635l-5.258-2.765z"></path>
<path fill="#f5f5f7" style="fill: var(--color2, #f5f5f7); stroke: var(--color2, #f5f5f7)" stroke="#f5f5f7" stroke-linejoin="miter" stroke-linecap="butt" stroke-miterlimit="4" stroke-width="0.9143" d="M14.013 16.791l2.967-9.998h1.004l-2.971 9.998z"></path>
</symbol>
<symbol id="icon-search" viewBox="0 0 32 32">
<path d="M3.555 14.222c0-5.883 4.784-10.666 10.666-10.666s10.667 4.784 10.667 10.666c0 5.883-4.784 10.667-10.666 10.667s-10.666-4.784-10.666-10.666zM31.479 28.965l-6.035-6.037c1.872-2.407 3.001-5.424 3.001-8.706 0-7.842-6.38-14.222-14.222-14.222s-14.222 6.38-14.222 14.222 6.38 14.222 14.222 14.222c3.282 0 6.299-1.129 8.706-3.001l6.037 6.035c0.347 0.347 0.802 0.521 1.257 0.521s0.91-0.174 1.257-0.521c0.695-0.695 0.695-1.819 0-2.514z"></path>
</symbol>
<symbol id="icon-arrow" viewBox="0 0 32 32">
<path d="M8.644 0.094c-0.506 0.138-0.819 0.325-1.188 0.694-0.575 0.575-0.856 1.413-0.725 2.169 0.156 0.925-0.219 0.5 6.325 7.056l5.975 5.987-5.975 5.988c-6.544 6.556-6.169 6.131-6.325 7.056-0.281 1.644 1.275 3.194 2.925 2.913 0.894-0.156 0.775-0.056 4.875-4.131 9.425-9.375 10.306-10.269 10.494-10.656 0.244-0.506 0.331-1.063 0.244-1.575-0.156-0.9 0.225-0.488-7.262-7.956-3.769-3.756-6.981-6.938-7.144-7.075-0.575-0.469-1.519-0.669-2.219-0.469z"></path>
</symbol>
<symbol id="icon-layout-cards" viewBox="0 0 32 32">
<path d="M1.524 0h10.667c0.842 0 1.524 0.682 1.524 1.524v10.667c0 0.842-0.682 1.524-1.524 1.524h-10.667c-0.842 0-1.524-0.682-1.524-1.524v-10.667c0-0.842 0.682-1.524 1.524-1.524z"></path>
<path d="M19.81 0h10.667c0.842 0 1.524 0.682 1.524 1.524v10.667c0 0.842-0.682 1.524-1.524 1.524h-10.667c-0.842 0-1.524-0.682-1.524-1.524v-10.667c0-0.842 0.682-1.524 1.524-1.524z"></path>
<path d="M1.524 18.286h10.667c0.842 0 1.524 0.682 1.524 1.524v10.667c0 0.842-0.682 1.524-1.524 1.524h-10.667c-0.842 0-1.524-0.682-1.524-1.524v-10.667c0-0.842 0.682-1.524 1.524-1.524z"></path>
<path d="M19.81 18.286h10.667c0.842 0 1.524 0.682 1.524 1.524v10.667c0 0.842-0.682 1.524-1.524 1.524h-10.667c-0.842 0-1.524-0.682-1.524-1.524v-10.667c0-0.842 0.682-1.524 1.524-1.524z"></path>
</symbol>
<symbol id="icon-layout-list" viewBox="0 0 32 32">
<path d="M1.524 0h16.762c0.842 0 1.524 0.682 1.524 1.524v10.667c0 0.842-0.682 1.524-1.524 1.524h-16.762c-0.842 0-1.524-0.682-1.524-1.524v-10.667c0-0.842 0.682-1.524 1.524-1.524z"></path>
<path d="M1.524 18.286h28.952c0.842 0 1.524 0.682 1.524 1.524v10.667c0 0.842-0.682 1.524-1.524 1.524h-28.952c-0.842 0-1.524-0.682-1.524-1.524v-10.667c0-0.842 0.682-1.524 1.524-1.524z"></path>
</symbol>
<symbol id="icon-theme-dark" viewBox="0 0 32 32">
<path d="M8.715 4.669c-0.801 0.566-1.536 1.222-2.202 1.965-4.563 5.073-4.414 13.191 0.332 18.095 2.508 2.593 5.878 4.040 9.488 4.070 0.040 0.002 0.082 0.002 0.123 0.002 3.564 0 6.909-1.381 9.434-3.897 0.525-0.523 1.003-1.085 1.43-1.683-5.039 0.627-10.204-1.059-13.873-4.717-3.668-3.657-5.365-8.806-4.731-13.834zM16.456 32c-0.051 0-0.101 0-0.152-0.002-4.475-0.038-8.654-1.83-11.762-5.045-5.889-6.088-6.073-16.162-0.413-22.458 1.763-1.963 3.916-3.44 6.397-4.389 0.585-0.227 1.249-0.086 1.696 0.355 0.447 0.44 0.596 1.101 0.38 1.69-1.791 4.888-0.57 10.417 3.109 14.086 3.681 3.669 9.23 4.886 14.139 3.101 0.589-0.218 1.252-0.064 1.691 0.381 0.439 0.45 0.578 1.112 0.352 1.696-0.839 2.181-2.098 4.117-3.741 5.753-3.128 3.12-7.276 4.832-11.695 4.832z"></path>
</symbol>
<symbol id="icon-theme-light" viewBox="0 0 32 32">
<path d="M19.2 16c0-1.765-1.435-3.2-3.2-3.2s-3.2 1.435-3.2 3.2 1.435 3.2 3.2 3.2 3.2-1.435 3.2-3.2zM22.4 16c0 3.53-2.87 6.4-6.4 6.4s-6.4-2.87-6.4-6.4 2.87-6.4 6.4-6.4 6.4 2.87 6.4 6.4zM6.832 22.629l-2.302 2.222c-0.635 0.614-0.653 1.629-0.038 2.262 0.314 0.325 0.731 0.49 1.15 0.49 0.4 0 0.8-0.149 1.112-0.448l2.302-2.224c0.635-0.614 0.653-1.629 0.038-2.262-0.613-0.635-1.626-0.653-2.262-0.040zM25.168 22.629c-0.635-0.613-1.648-0.595-2.262 0.040-0.614 0.634-0.597 1.648 0.038 2.262l2.302 2.224c0.312 0.299 0.712 0.448 1.112 0.448 0.419 0 0.837-0.165 1.15-0.49 0.614-0.634 0.597-1.648-0.038-2.262zM16 25.6c-0.883 0-1.6 0.715-1.6 1.6v3.2c0 0.885 0.717 1.6 1.6 1.6s1.6-0.715 1.6-1.6v-3.2c0-0.885-0.717-1.6-1.6-1.6zM24.056 9.821c0.4 0 0.802-0.149 1.112-0.45l2.302-2.222c0.635-0.614 0.653-1.629 0.038-2.262-0.613-0.635-1.624-0.653-2.262-0.042l-2.302 2.224c-0.635 0.614-0.653 1.629-0.038 2.262 0.314 0.325 0.731 0.49 1.15 0.49zM6.754 4.845c-0.635-0.611-1.648-0.594-2.262 0.042-0.614 0.634-0.597 1.648 0.038 2.262l2.302 2.222c0.31 0.301 0.712 0.45 1.112 0.45 0.419 0 0.837-0.165 1.15-0.49 0.614-0.634 0.597-1.648-0.038-2.262zM6.4 16c0-0.885-0.717-1.6-1.6-1.6h-3.2c-0.883 0-1.6 0.715-1.6 1.6s0.717 1.6 1.6 1.6h3.2c0.883 0 1.6-0.715 1.6-1.6zM30.4 14.4h-3.2c-0.883 0-1.6 0.715-1.6 1.6s0.717 1.6 1.6 1.6h3.2c0.883 0 1.6-0.715 1.6-1.6s-0.717-1.6-1.6-1.6zM14.4 4.8v-3.2c0-0.885 0.717-1.6 1.6-1.6s1.6 0.715 1.6 1.6v3.2c0 0.885-0.717 1.6-1.6 1.6s-1.6-0.715-1.6-1.6z"></path>
</symbol>
<symbol id="icon-theme-os" viewBox="0 0 32 32">
<path d="M0.879 1.979c-0.302 0.094-0.71 0.521-0.804 0.836-0.057 0.201-0.075 2.588-0.075 10.554 0 9.825 0.006 10.309 0.119 10.547 0.119 0.27 0.49 0.628 0.741 0.729 0.201 0.075 8.82 0.075 9.021 0 0.251-0.101 0.622-0.459 0.741-0.729 0.295-0.641-0.013-1.439-0.666-1.734-0.232-0.107-0.49-0.119-3.474-0.119-3.468 0-3.455 0-3.681-0.327-0.088-0.126-0.1-1.018-0.1-8.393 0-8.964-0.019-8.506 0.345-8.669 0.126-0.057 3.053-0.075 12.438-0.075h12.281l0.201 0.182 0.207 0.182 0.031 3.040c0.031 3.323 0.019 3.21 0.421 3.574 0.314 0.295 0.565 0.389 0.999 0.358 0.49-0.031 0.854-0.258 1.093-0.678l0.157-0.283 0.019-3.863c0.013-2.67 0-3.951-0.050-4.146-0.101-0.421-0.346-0.729-0.71-0.911l-0.32-0.157-14.354 0.006c-10.346 0.006-14.423 0.025-14.58 0.075z"></path>
<path d="M18.261 10.441c-0.094 0.031-0.817 0.402-1.596 0.829-1.558 0.848-1.734 0.999-1.815 1.539-0.031 0.214 0 0.408 0.126 0.823 0.339 1.124 0.126 2.048-0.66 2.827-0.452 0.452-1.194 0.766-1.803 0.766-0.647 0-0.955 0.364-1.112 1.319-0.163 0.974-0.182 1.998-0.069 2.89 0.126 0.98 0.232 1.307 0.509 1.57 0.195 0.188 0.258 0.207 0.735 0.251 0.911 0.088 1.583 0.452 2.060 1.118 0.509 0.704 0.628 1.564 0.345 2.444-0.088 0.27-0.157 0.559-0.157 0.641 0 0.276 0.144 0.634 0.339 0.829 0.214 0.214 2.582 1.564 2.959 1.69 0.465 0.151 0.93-0.013 1.476-0.528 0.421-0.396 1.018-0.81 1.388-0.961 0.151-0.063 0.433-0.107 0.628-0.113 0.496 0 1.131 0.333 1.872 0.98 0.647 0.565 0.873 0.685 1.307 0.685 0.314 0 0.597-0.138 2.676-1.3 0.986-0.547 1.15-0.949 0.829-1.985-0.151-0.471-0.17-0.622-0.138-1.030 0.063-0.81 0.553-1.621 1.25-2.067 0.339-0.214 0.942-0.402 1.313-0.402 0.961 0 1.275-0.741 1.275-3.015 0-2.205-0.314-3.015-1.156-3.015-1.2 0-2.299-0.861-2.613-2.042-0.126-0.471-0.107-0.911 0.069-1.457 0.188-0.584 0.195-0.905 0.038-1.25-0.151-0.339-0.289-0.433-1.828-1.281-1.068-0.591-1.344-0.716-1.608-0.741-0.433-0.038-0.748 0.075-1.087 0.396-0.691 0.634-1.401 1.055-1.929 1.137-0.534 0.075-1.351-0.302-2.117-0.986-0.214-0.195-0.477-0.396-0.578-0.452-0.245-0.126-0.704-0.176-0.93-0.107zM19.725 13.739c0.226 0.195 0.647 0.471 0.936 0.616 0.509 0.251 0.559 0.264 1.099 0.264 0.528 0 0.609-0.019 1.043-0.226 0.258-0.126 0.678-0.389 0.936-0.597 0.258-0.201 0.496-0.364 0.534-0.352s0.484 0.251 0.986 0.528l0.917 0.509-0.119 0.371c-0.295 0.967-0.038 2.123 0.647 2.902 0.484 0.547 1.439 1.043 2.004 1.043 0.17 0 0.182 0.019 0.232 0.358 0.063 0.471 0.063 1.702 0 2.167-0.050 0.346-0.063 0.364-0.232 0.364-0.565 0-1.52 0.496-2.004 1.043-0.685 0.779-0.942 1.935-0.647 2.902l0.119 0.371-0.993 0.553-0.999 0.547-0.389-0.358c-1.451-1.319-2.802-1.3-4.291 0.044l-0.32 0.289-0.936-0.528c-0.521-0.289-0.936-0.559-0.936-0.603 0.006-0.044 0.057-0.251 0.113-0.459 0.446-1.652-0.741-3.461-2.45-3.757-0.465-0.082-0.44-0.031-0.528-0.911-0.031-0.352-0.031-0.804 0-1.162 0.088-0.867 0.075-0.835 0.427-0.879 0.17-0.019 0.484-0.107 0.71-0.195 1.545-0.622 2.331-2.444 1.721-4.002-0.025-0.075 0.188-0.22 0.955-0.641 0.547-0.302 1.005-0.547 1.024-0.547s0.22 0.157 0.44 0.345z"></path>
<path d="M21.139 16.157c-1.351 0.201-2.481 1.018-3.097 2.236-0.66 1.307-0.534 2.927 0.327 4.127 0.76 1.074 2.054 1.74 3.348 1.74 1.734-0.006 3.373-1.263 3.889-2.984 0.182-0.603 0.157-1.684-0.057-2.331-0.496-1.495-1.778-2.569-3.336-2.783-0.534-0.075-0.609-0.075-1.074-0.006zM22.596 18.356c0.427 0.214 0.748 0.54 0.974 0.999 0.201 0.402 0.201 1.225 0.006 1.652-0.188 0.415-0.603 0.835-1.018 1.037-0.302 0.151-0.427 0.176-0.886 0.176s-0.584-0.025-0.892-0.176c-1.256-0.616-1.545-2.318-0.559-3.304 0.647-0.647 1.539-0.792 2.375-0.383z"></path>
<path d="M6.942 27.496c-0.339 0.119-0.754 0.572-0.848 0.911-0.163 0.609 0.144 1.282 0.71 1.539l0.327 0.157h2.953c2.739 0 2.971-0.013 3.204-0.119 1.131-0.521 0.999-2.211-0.195-2.513-0.433-0.113-5.83-0.088-6.15 0.025z"></path>
</symbol>
</defs>
</svg>
