<?xml version="1.0" standalone="no"?>
<!DOCTYPE svg PUBLIC "-//W3C//DTD SVG 20010904//EN"
 "http://www.w3.org/TR/2001/REC-SVG-20010904/DTD/svg10.dtd">
<svg version="1.0" xmlns="http://www.w3.org/2000/svg"
 width="792.000000pt" height="792.000000pt" viewBox="0 0 792.000000 792.000000"
 preserveAspectRatio="xMidYMid meet">
<metadata>
Created by potrace 1.11, written by Peter Selinger 2001-2013
</metadata>
<g transform="translate(0.000000,792.000000) scale(0.100000,-0.100000)"
fill="#000000" stroke="none">
<path d="M3886 7840 c-26 -8 -140 -65 -288 -145 -78 -42 -330 -174 -473 -248
-33 -17 -63 -35 -66 -40 -3 -5 -9 -8 -13 -8 -8 1 -97 -45 -511 -264 -71 -37
-164 -86 -205 -107 -41 -21 -82 -43 -90 -48 -51 -30 -177 -95 -189 -97 -8 -1
-17 -5 -20 -10 -3 -4 -53 -32 -111 -62 -162 -83 -254 -133 -268 -143 -6 -6
-12 -8 -12 -4 0 3 -17 -4 -37 -17 -21 -13 -78 -44 -128 -70 -49 -25 -137 -71
-195 -102 -58 -30 -134 -70 -170 -88 -36 -17 -67 -34 -70 -37 -5 -5 -137 -75
-239 -126 -80 -41 -132 -103 -158 -189 -6 -18 -9 -701 -9 -1710 l1 -1680 27
-51 c36 -69 85 -108 225 -179 65 -33 120 -62 123 -65 3 -3 32 -18 65 -35 33
-16 82 -42 108 -57 26 -16 54 -28 62 -28 8 0 15 -4 15 -9 0 -5 6 -11 13 -13
10 -3 270 -138 422 -220 28 -15 75 -39 105 -54 30 -15 58 -32 62 -38 4 -6 8
-7 8 -3 0 5 15 0 32 -11 18 -11 83 -46 143 -77 61 -32 148 -78 195 -103 47
-25 112 -59 145 -75 33 -17 68 -37 77 -46 10 -8 18 -11 18 -6 0 4 6 3 13 -2 6
-6 57 -34 112 -63 55 -29 116 -62 136 -73 l36 -21 -85 -145 c-46 -80 -94 -162
-104 -181 -171 -299 -314 -546 -319 -550 -3 -3 -22 -38 -42 -78 -33 -67 -36
-80 -34 -145 4 -76 24 -129 69 -178 95 -105 233 -121 373 -44 22 12 81 44 130
70 182 96 447 236 570 302 55 29 129 68 165 85 36 18 67 35 70 38 6 6 26 17
183 99 60 31 139 72 175 91 37 20 146 77 242 127 96 50 218 113 270 141 52 28
124 65 160 84 36 18 67 35 70 38 5 5 54 31 225 118 50 25 92 49 93 54 2 4 12
8 21 8 10 0 29 8 42 18 13 9 69 40 124 67 55 28 102 52 105 55 3 3 27 16 55
30 27 14 67 35 87 48 21 12 42 22 48 22 6 0 27 11 48 23 20 13 102 58 182 99
358 186 427 223 463 245 20 13 37 20 37 17 0 -4 6 -2 13 3 15 12 110 63 322
173 88 46 177 94 198 107 20 13 37 20 37 17 0 -4 6 -2 13 4 6 5 66 38 132 73
66 34 150 79 187 98 84 44 135 92 162 151 l21 45 2 1692 3 1691 -31 61 c-38
74 -69 99 -212 174 -62 32 -152 80 -202 107 -49 26 -148 78 -220 115 -71 38
-159 84 -195 103 -36 19 -116 61 -179 94 -160 84 -243 128 -255 136 -6 3 -17
7 -24 8 -8 2 -22 10 -32 19 -10 9 -25 17 -33 19 -8 1 -21 6 -28 12 -17 11 -38
22 -194 104 -66 34 -167 88 -225 119 -121 64 -253 133 -360 188 -41 21 -135
71 -210 111 -74 40 -139 74 -145 75 -5 1 -12 5 -15 8 -3 3 -36 21 -75 40 -38
19 -72 36 -75 39 -3 3 -48 27 -100 54 -52 27 -129 67 -170 89 -228 122 -264
138 -330 142 -36 2 -78 0 -94 -5z"/>
</g>
</svg>
