<svg xmlns="http://www.w3.org/2000/svg" width="30" height="35" viewBox="0 0 30 35"><g fill="none" fill-rule="evenodd"><path fill="#277987" d="M15.475 31.368 8.952 34.82a1.25 1.25 0 0 1-1.677-1.739l2.445-4.236L.823 24.16a1.23 1.23 0 0 1-.671-1.113v-14.5c-.007-.468.254-.9.671-1.112L14.418.282a1.23 1.23 0 0 1 1.171 0l13.595 7.154c.418.212.679.643.673 1.112v14.5c.006.47-.255.9-.673 1.113l-13.595 7.153q-.055.03-.114.054"/><path fill="#f5f5f7" d="m27.66 11.67-4.983-2.622-3.718-1.955v2.87l5.723 3.012-5.723 3.01v2.87l3.718-1.955 4.984-2.621z"/><path fill="#f5d861" d="M11.05 9.963v-2.87L7.33 9.048 2.348 11.67v2.609L7.33 16.9l3.72 1.955v-2.87l-5.725-3.01z"/><path fill="#f5f5f7" fill-rule="nonzero" stroke="#f5f5f7" d="m12.841 18.418 3.23-10.888h1.093L13.93 18.418z"/></g></svg>
